<?xml version="1.0" encoding="utf-8"?>
<!-- Generator: Adobe Illustrator 22.0.0, SVG Export Plug-In . SVG Version: 6.00 Build 0)  -->
<svg version="1.1" id="Слой_1" xmlns="http://www.w3.org/2000/svg" xmlns:xlink="http://www.w3.org/1999/xlink" x="0px" y="0px"
	 viewBox="0 0 100 100" style="enable-background:new 0 0 100 100;" xml:space="preserve">
<style type="text/css">
	.st0{fill:#223C50;}
	.st1{fill:url(#SVGID_1_);}
	.st2{fill:#E6F5FC;}
	.st3{fill:url(#SVGID_2_);}
	.st4{fill:#BAD7E5;}
	.st5{fill:#FFFFFF;}
</style>
<g>
	<g>
		<circle class="st0" cx="50.3" cy="53.2" r="35.8"/>
	</g>
	<g>
		<linearGradient id="SVGID_1_" gradientUnits="userSpaceOnUse" x1="20.3434" y1="50.1157" x2="85.9032" y2="50.1157">
			<stop  offset="0" style="stop-color:#DFF5FB"/>
			<stop  offset="1" style="stop-color:#AED8E6"/>
		</linearGradient>
		<path class="st1" d="M85.9,35.1l-7.7-13L36.3,11.2l-16,61.5c6.4,9.8,17.4,16.3,30,16.3c9.2,0,17.6-3.5,24-9.2L85.9,35.1z"/>
		<path class="st2" d="M85.9,35.1L77.8,33c-1.2-0.3-2-1.6-1.7-2.8l2.1-8.1L85.9,35.1z"/>
	</g>
	<linearGradient id="SVGID_2_" gradientUnits="userSpaceOnUse" x1="21.3626" y1="61.2921" x2="67.9158" y2="61.2921">
		<stop  offset="0" style="stop-color:#F28B6C"/>
		<stop  offset="1" style="stop-color:#C7586B"/>
	</linearGradient>
	<rect x="21.4" y="47.2" class="st3" width="46.6" height="28.1"/>
	<circle class="st0" cx="64.3" cy="64.1" r="11.1"/>
	<g>
		<g>
			<g transform="translate(20 22)">
				<g>
					<g>
						<path class="st4" d="M46.5,41.9V35c0-0.7-0.6-1.1-1.1-1.1c-0.7,0-1.1,0.6-1.1,1.1V41c-0.6,0.2-0.9,0.6-1.1,1.1h-3.5
							c-0.7,0-1.1,0.6-1.1,1.1c0,0.7,0.6,1.1,1.1,1.1h4.3c0.4,0.2,0.7,0.4,1.1,0.4c1.1,0,2-0.9,2-2C46.9,42.6,46.7,42.3,46.5,41.9
							L46.5,41.9z M48.9,12.5c0-0.7-0.6-1.1-1.1-1.1h-5.9V7.8c0-0.7-0.6-1.1-1.1-1.1h-7.2c-0.7,0-1.1,0.6-1.1,1.1v3.5H18V7.8
							c0-0.7-0.6-1.1-1.1-1.1H9.7C9,6.7,8.6,7.3,8.6,7.8v3.5H2.5c-0.6,0-1.1,0.6-1.1,1.1v8.3h47.5V12.5L48.9,12.5z M15.6,16h-4.8V9
							h4.8V16L15.6,16z M39.3,16h-4.6V9h4.8v7H39.3z"/>
					</g>
				</g>
				<g>
					<g>
						<path class="st5" d="M48.9,29.9V23H1.4v29.6c0,0.7,0.6,1.1,1.1,1.1h39.2h0.2c0.7,0.2,1.5,0.2,2.4,0.2c7,0,12.6-5.7,12.6-12.6
							C56.9,36.3,53.6,31.7,48.9,29.9L48.9,29.9z M37.1,28h4.8v1.3c-1.7,0.4-3.3,1.1-4.8,2V28L37.1,28z M29.9,28h4.8v4.8h-4.8V28
							L29.9,28z M13.2,46.9H8.6v-4.8h4.8v4.8H13.2z M13.2,39.8H8.6V35h4.8v4.8H13.2z M13.2,32.6H8.6v-4.8h4.8v4.8H13.2z M20.4,46.9
							h-4.8v-4.8h4.8V46.9L20.4,46.9z M20.4,39.8h-4.8V35h4.8V39.8L20.4,39.8z M20.4,32.6h-4.8v-4.8h4.8V32.6L20.4,32.6z M27.5,46.9
							h-4.8v-4.8h4.8V46.9L27.5,46.9z M27.5,39.8h-4.8V35h4.8V39.8L27.5,39.8z M27.5,32.6h-4.8v-4.8h4.8V32.6L27.5,32.6z M29.9,46.9
							v-4.8h1.8c0,1.7,0.6,3.3,1.1,4.8H29.9L29.9,46.9z M31.9,39.8h-2V35h3.7C32.7,36.5,32.1,38,31.9,39.8L31.9,39.8z M44.3,51.9
							c-5.5,0-10.2-4.6-10.2-10.2s4.6-10.2,10.2-10.2s10.2,4.6,10.2,10.2S49.9,51.9,44.3,51.9L44.3,51.9z"/>
					</g>
				</g>
			</g>
		</g>
	</g>
</g>
</svg>
